<mxfile host="app.diagrams.net" agent="Mozilla/5.0 (Windows NT 10.0; Win64; x64) AppleWebKit/537.36 (KHTML, like Gecko) Chrome/134.0.0.0 Safari/537.36 Edg/134.0.0.0" version="26.2.12">
  <diagram id="C5RBs43oDa-KdzZeNtuy" name="Page-1">
    <mxGraphModel dx="1330" dy="275" grid="1" gridSize="10" guides="1" tooltips="1" connect="1" arrows="1" fold="1" page="1" pageScale="1" pageWidth="827" pageHeight="1169" math="0" shadow="0">
      <root>
        <mxCell id="WIyWlLk6GJQsqaUBKTNV-0" />
        <mxCell id="WIyWlLk6GJQsqaUBKTNV-1" parent="WIyWlLk6GJQsqaUBKTNV-0" />
        <mxCell id="zkfFHV4jXpPFQw0GAbJ--0" value="&lt;&lt;interface&gt;&gt;&#xa;Weapon" style="swimlane;fontStyle=2;align=center;verticalAlign=top;childLayout=stackLayout;horizontal=1;startSize=40;horizontalStack=0;resizeParent=1;resizeLast=0;collapsible=1;marginBottom=0;rounded=0;shadow=0;strokeWidth=1;" parent="WIyWlLk6GJQsqaUBKTNV-1" vertex="1">
          <mxGeometry x="150" y="110" width="190" height="110" as="geometry">
            <mxRectangle x="230" y="140" width="160" height="26" as="alternateBounds" />
          </mxGeometry>
        </mxCell>
        <mxCell id="zkfFHV4jXpPFQw0GAbJ--1" value="+getWeaponName(): String&#xa;+getBasePower(): Int&#xa;+doSpecialAttack(): Void&#xa;+doNormalAttack(): Void" style="text;align=left;verticalAlign=top;spacingLeft=4;spacingRight=4;overflow=hidden;rotatable=0;points=[[0,0.5],[1,0.5]];portConstraint=eastwest;" parent="zkfFHV4jXpPFQw0GAbJ--0" vertex="1">
          <mxGeometry y="40" width="190" height="70" as="geometry" />
        </mxCell>
        <mxCell id="zkfFHV4jXpPFQw0GAbJ--6" value="{Abstract}&#xa;MagicalItem" style="swimlane;fontStyle=0;align=center;verticalAlign=top;childLayout=stackLayout;horizontal=1;startSize=40;horizontalStack=0;resizeParent=1;resizeLast=0;collapsible=1;marginBottom=0;rounded=0;shadow=0;strokeWidth=1;" parent="WIyWlLk6GJQsqaUBKTNV-1" vertex="1">
          <mxGeometry x="50" y="360" width="200" height="190" as="geometry">
            <mxRectangle x="130" y="380" width="160" height="26" as="alternateBounds" />
          </mxGeometry>
        </mxCell>
        <mxCell id="zkfFHV4jXpPFQw0GAbJ--8" value="#weaponName: String&#xa;#specialAttackName: String&#xa;#normalAttackName: String&#xa;#magicalPower: Int&#xa;#rarity: String&#xa;#range: Int" style="text;align=left;verticalAlign=top;spacingLeft=4;spacingRight=4;overflow=hidden;rotatable=0;points=[[0,0.5],[1,0.5]];portConstraint=eastwest;rounded=0;shadow=0;html=0;" parent="zkfFHV4jXpPFQw0GAbJ--6" vertex="1">
          <mxGeometry y="40" width="200" height="110" as="geometry" />
        </mxCell>
        <mxCell id="fiHjf8CpsCOwkjGCvEwX-5" value="" style="shape=link;html=1;rounded=0;entryX=0.997;entryY=0.006;entryDx=0;entryDy=0;entryPerimeter=0;exitX=0;exitY=0.03;exitDx=0;exitDy=0;exitPerimeter=0;" edge="1" parent="zkfFHV4jXpPFQw0GAbJ--6" source="fiHjf8CpsCOwkjGCvEwX-4" target="fiHjf8CpsCOwkjGCvEwX-4">
          <mxGeometry width="100" relative="1" as="geometry">
            <mxPoint x="30" y="149" as="sourcePoint" />
            <mxPoint x="130" y="149" as="targetPoint" />
          </mxGeometry>
        </mxCell>
        <mxCell id="fiHjf8CpsCOwkjGCvEwX-4" value="getRange(): Int" style="text;align=left;verticalAlign=top;spacingLeft=4;spacingRight=4;overflow=hidden;rotatable=0;points=[[0,0.5],[1,0.5]];portConstraint=eastwest;rounded=0;shadow=0;html=0;" vertex="1" parent="zkfFHV4jXpPFQw0GAbJ--6">
          <mxGeometry y="150" width="200" height="40" as="geometry" />
        </mxCell>
        <mxCell id="zkfFHV4jXpPFQw0GAbJ--12" value="" style="endArrow=block;endSize=10;endFill=0;shadow=0;strokeWidth=1;rounded=0;curved=0;edgeStyle=elbowEdgeStyle;elbow=vertical;" parent="WIyWlLk6GJQsqaUBKTNV-1" source="zkfFHV4jXpPFQw0GAbJ--6" target="zkfFHV4jXpPFQw0GAbJ--0" edge="1">
          <mxGeometry width="160" relative="1" as="geometry">
            <mxPoint x="200" y="203" as="sourcePoint" />
            <mxPoint x="200" y="203" as="targetPoint" />
          </mxGeometry>
        </mxCell>
        <mxCell id="zkfFHV4jXpPFQw0GAbJ--16" value="" style="endArrow=block;endSize=10;endFill=0;shadow=0;strokeWidth=1;rounded=0;curved=0;edgeStyle=elbowEdgeStyle;elbow=vertical;entryX=0.556;entryY=0.981;entryDx=0;entryDy=0;entryPerimeter=0;" parent="WIyWlLk6GJQsqaUBKTNV-1" target="zkfFHV4jXpPFQw0GAbJ--1" edge="1">
          <mxGeometry width="160" relative="1" as="geometry">
            <mxPoint x="410" y="360" as="sourcePoint" />
            <mxPoint x="310" y="271" as="targetPoint" />
            <Array as="points">
              <mxPoint x="300" y="320" />
            </Array>
          </mxGeometry>
        </mxCell>
        <mxCell id="zkfFHV4jXpPFQw0GAbJ--17" value="Ma" style="swimlane;fontStyle=0;align=center;verticalAlign=top;childLayout=stackLayout;horizontal=1;startSize=26;horizontalStack=0;resizeParent=1;resizeLast=0;collapsible=1;marginBottom=0;rounded=0;shadow=0;strokeWidth=1;" parent="WIyWlLk6GJQsqaUBKTNV-1" vertex="1">
          <mxGeometry x="508" y="120" width="160" height="216" as="geometry">
            <mxRectangle x="550" y="140" width="160" height="26" as="alternateBounds" />
          </mxGeometry>
        </mxCell>
        <mxCell id="zkfFHV4jXpPFQw0GAbJ--18" value="Street" style="text;align=left;verticalAlign=top;spacingLeft=4;spacingRight=4;overflow=hidden;rotatable=0;points=[[0,0.5],[1,0.5]];portConstraint=eastwest;" parent="zkfFHV4jXpPFQw0GAbJ--17" vertex="1">
          <mxGeometry y="26" width="160" height="26" as="geometry" />
        </mxCell>
        <mxCell id="zkfFHV4jXpPFQw0GAbJ--19" value="City" style="text;align=left;verticalAlign=top;spacingLeft=4;spacingRight=4;overflow=hidden;rotatable=0;points=[[0,0.5],[1,0.5]];portConstraint=eastwest;rounded=0;shadow=0;html=0;" parent="zkfFHV4jXpPFQw0GAbJ--17" vertex="1">
          <mxGeometry y="52" width="160" height="26" as="geometry" />
        </mxCell>
        <mxCell id="zkfFHV4jXpPFQw0GAbJ--20" value="State" style="text;align=left;verticalAlign=top;spacingLeft=4;spacingRight=4;overflow=hidden;rotatable=0;points=[[0,0.5],[1,0.5]];portConstraint=eastwest;rounded=0;shadow=0;html=0;" parent="zkfFHV4jXpPFQw0GAbJ--17" vertex="1">
          <mxGeometry y="78" width="160" height="26" as="geometry" />
        </mxCell>
        <mxCell id="zkfFHV4jXpPFQw0GAbJ--21" value="Postal Code" style="text;align=left;verticalAlign=top;spacingLeft=4;spacingRight=4;overflow=hidden;rotatable=0;points=[[0,0.5],[1,0.5]];portConstraint=eastwest;rounded=0;shadow=0;html=0;" parent="zkfFHV4jXpPFQw0GAbJ--17" vertex="1">
          <mxGeometry y="104" width="160" height="26" as="geometry" />
        </mxCell>
        <mxCell id="zkfFHV4jXpPFQw0GAbJ--22" value="Country" style="text;align=left;verticalAlign=top;spacingLeft=4;spacingRight=4;overflow=hidden;rotatable=0;points=[[0,0.5],[1,0.5]];portConstraint=eastwest;rounded=0;shadow=0;html=0;" parent="zkfFHV4jXpPFQw0GAbJ--17" vertex="1">
          <mxGeometry y="130" width="160" height="26" as="geometry" />
        </mxCell>
        <mxCell id="zkfFHV4jXpPFQw0GAbJ--23" value="" style="line;html=1;strokeWidth=1;align=left;verticalAlign=middle;spacingTop=-1;spacingLeft=3;spacingRight=3;rotatable=0;labelPosition=right;points=[];portConstraint=eastwest;" parent="zkfFHV4jXpPFQw0GAbJ--17" vertex="1">
          <mxGeometry y="156" width="160" height="8" as="geometry" />
        </mxCell>
        <mxCell id="zkfFHV4jXpPFQw0GAbJ--24" value="Validate" style="text;align=left;verticalAlign=top;spacingLeft=4;spacingRight=4;overflow=hidden;rotatable=0;points=[[0,0.5],[1,0.5]];portConstraint=eastwest;" parent="zkfFHV4jXpPFQw0GAbJ--17" vertex="1">
          <mxGeometry y="164" width="160" height="26" as="geometry" />
        </mxCell>
        <mxCell id="zkfFHV4jXpPFQw0GAbJ--25" value="Output As Label" style="text;align=left;verticalAlign=top;spacingLeft=4;spacingRight=4;overflow=hidden;rotatable=0;points=[[0,0.5],[1,0.5]];portConstraint=eastwest;" parent="zkfFHV4jXpPFQw0GAbJ--17" vertex="1">
          <mxGeometry y="190" width="160" height="26" as="geometry" />
        </mxCell>
        <mxCell id="zkfFHV4jXpPFQw0GAbJ--26" value="" style="endArrow=open;shadow=0;strokeWidth=1;rounded=0;curved=0;endFill=1;edgeStyle=elbowEdgeStyle;elbow=vertical;" parent="WIyWlLk6GJQsqaUBKTNV-1" source="zkfFHV4jXpPFQw0GAbJ--0" target="zkfFHV4jXpPFQw0GAbJ--17" edge="1">
          <mxGeometry x="0.5" y="41" relative="1" as="geometry">
            <mxPoint x="380" y="192" as="sourcePoint" />
            <mxPoint x="540" y="192" as="targetPoint" />
            <mxPoint x="-40" y="32" as="offset" />
          </mxGeometry>
        </mxCell>
        <mxCell id="zkfFHV4jXpPFQw0GAbJ--27" value="0..1" style="resizable=0;align=left;verticalAlign=bottom;labelBackgroundColor=none;fontSize=12;" parent="zkfFHV4jXpPFQw0GAbJ--26" connectable="0" vertex="1">
          <mxGeometry x="-1" relative="1" as="geometry">
            <mxPoint y="4" as="offset" />
          </mxGeometry>
        </mxCell>
        <mxCell id="zkfFHV4jXpPFQw0GAbJ--28" value="1" style="resizable=0;align=right;verticalAlign=bottom;labelBackgroundColor=none;fontSize=12;" parent="zkfFHV4jXpPFQw0GAbJ--26" connectable="0" vertex="1">
          <mxGeometry x="1" relative="1" as="geometry">
            <mxPoint x="-7" y="4" as="offset" />
          </mxGeometry>
        </mxCell>
        <mxCell id="zkfFHV4jXpPFQw0GAbJ--29" value="lives at" style="text;html=1;resizable=0;points=[];;align=center;verticalAlign=middle;labelBackgroundColor=none;rounded=0;shadow=0;strokeWidth=1;fontSize=12;" parent="zkfFHV4jXpPFQw0GAbJ--26" vertex="1" connectable="0">
          <mxGeometry x="0.5" y="49" relative="1" as="geometry">
            <mxPoint x="-38" y="40" as="offset" />
          </mxGeometry>
        </mxCell>
        <mxCell id="fiHjf8CpsCOwkjGCvEwX-1" value="{Abstract}&#xa;MagicalItem" style="swimlane;fontStyle=0;align=center;verticalAlign=top;childLayout=stackLayout;horizontal=1;startSize=40;horizontalStack=0;resizeParent=1;resizeLast=0;collapsible=1;marginBottom=0;rounded=0;shadow=0;strokeWidth=1;" vertex="1" parent="WIyWlLk6GJQsqaUBKTNV-1">
          <mxGeometry x="290" y="360" width="210" height="190" as="geometry">
            <mxRectangle x="130" y="380" width="160" height="26" as="alternateBounds" />
          </mxGeometry>
        </mxCell>
        <mxCell id="fiHjf8CpsCOwkjGCvEwX-2" value="#weaponName: String&#xa;#specialAttackName: String&#xa;#normalAttackName: String&#xa;#physicalDamage: Int&#xa;#rarity: String&#xa;#damageInflectionType: String&#xa;#cadency: Int&#xa;" style="text;align=left;verticalAlign=top;spacingLeft=4;spacingRight=4;overflow=hidden;rotatable=0;points=[[0,0.5],[1,0.5]];portConstraint=eastwest;rounded=0;shadow=0;html=0;" vertex="1" parent="fiHjf8CpsCOwkjGCvEwX-1">
          <mxGeometry y="40" width="210" height="110" as="geometry" />
        </mxCell>
        <mxCell id="fiHjf8CpsCOwkjGCvEwX-6" value="getCadency(): Void&#xa;getDamageInflectionType(): String" style="text;align=left;verticalAlign=top;spacingLeft=4;spacingRight=4;overflow=hidden;rotatable=0;points=[[0,0.5],[1,0.5]];portConstraint=eastwest;rounded=0;shadow=0;html=0;strokeColor=default;" vertex="1" parent="fiHjf8CpsCOwkjGCvEwX-1">
          <mxGeometry y="150" width="210" height="40" as="geometry" />
        </mxCell>
        <mxCell id="fiHjf8CpsCOwkjGCvEwX-7" value="Staff" style="swimlane;fontStyle=0;align=center;verticalAlign=top;childLayout=stackLayout;horizontal=1;startSize=30;horizontalStack=0;resizeParent=1;resizeLast=0;collapsible=1;marginBottom=0;rounded=0;shadow=0;strokeWidth=1;" vertex="1" parent="WIyWlLk6GJQsqaUBKTNV-1">
          <mxGeometry x="-140" y="150" width="150" height="140" as="geometry">
            <mxRectangle x="130" y="380" width="160" height="26" as="alternateBounds" />
          </mxGeometry>
        </mxCell>
        <mxCell id="fiHjf8CpsCOwkjGCvEwX-8" value="-element: String&#xa;-chargeLevel: Int" style="text;align=left;verticalAlign=top;spacingLeft=4;spacingRight=4;overflow=hidden;rotatable=0;points=[[0,0.5],[1,0.5]];portConstraint=eastwest;rounded=0;shadow=0;html=0;" vertex="1" parent="fiHjf8CpsCOwkjGCvEwX-7">
          <mxGeometry y="30" width="150" height="50" as="geometry" />
        </mxCell>
        <mxCell id="fiHjf8CpsCOwkjGCvEwX-9" value="" style="shape=link;html=1;rounded=0;entryX=0.997;entryY=0.006;entryDx=0;entryDy=0;entryPerimeter=0;exitX=0;exitY=0.03;exitDx=0;exitDy=0;exitPerimeter=0;" edge="1" parent="fiHjf8CpsCOwkjGCvEwX-7" source="fiHjf8CpsCOwkjGCvEwX-10" target="fiHjf8CpsCOwkjGCvEwX-10">
          <mxGeometry width="100" relative="1" as="geometry">
            <mxPoint x="30" y="149" as="sourcePoint" />
            <mxPoint x="130" y="149" as="targetPoint" />
          </mxGeometry>
        </mxCell>
        <mxCell id="fiHjf8CpsCOwkjGCvEwX-10" value="rechargeEnergy(): Void&#xa;getChargeLevel(): Int&#xa;getElement(): String&#xa;" style="text;align=left;verticalAlign=top;spacingLeft=4;spacingRight=4;overflow=hidden;rotatable=0;points=[[0,0.5],[1,0.5]];portConstraint=eastwest;rounded=0;shadow=0;html=0;" vertex="1" parent="fiHjf8CpsCOwkjGCvEwX-7">
          <mxGeometry y="80" width="150" height="60" as="geometry" />
        </mxCell>
        <mxCell id="fiHjf8CpsCOwkjGCvEwX-11" style="edgeStyle=orthogonalEdgeStyle;rounded=0;orthogonalLoop=1;jettySize=auto;html=1;entryX=0;entryY=0.5;entryDx=0;entryDy=0;" edge="1" parent="WIyWlLk6GJQsqaUBKTNV-1" source="fiHjf8CpsCOwkjGCvEwX-8" target="zkfFHV4jXpPFQw0GAbJ--8">
          <mxGeometry relative="1" as="geometry" />
        </mxCell>
        <mxCell id="fiHjf8CpsCOwkjGCvEwX-12" value="MagicalBook" style="swimlane;fontStyle=0;align=center;verticalAlign=top;childLayout=stackLayout;horizontal=1;startSize=30;horizontalStack=0;resizeParent=1;resizeLast=0;collapsible=1;marginBottom=0;rounded=0;shadow=0;strokeWidth=1;" vertex="1" parent="WIyWlLk6GJQsqaUBKTNV-1">
          <mxGeometry x="-370" y="270" width="210" height="140" as="geometry">
            <mxRectangle x="130" y="380" width="160" height="26" as="alternateBounds" />
          </mxGeometry>
        </mxCell>
        <mxCell id="fiHjf8CpsCOwkjGCvEwX-13" value="-magicSpells: Vector{String}&#xa;-creaturesToInvoke: Vector {String}" style="text;align=left;verticalAlign=top;spacingLeft=4;spacingRight=4;overflow=hidden;rotatable=0;points=[[0,0.5],[1,0.5]];portConstraint=eastwest;rounded=0;shadow=0;html=0;" vertex="1" parent="fiHjf8CpsCOwkjGCvEwX-12">
          <mxGeometry y="30" width="210" height="50" as="geometry" />
        </mxCell>
        <mxCell id="fiHjf8CpsCOwkjGCvEwX-14" value="" style="shape=link;html=1;rounded=0;entryX=0.997;entryY=0.006;entryDx=0;entryDy=0;entryPerimeter=0;exitX=0;exitY=0.03;exitDx=0;exitDy=0;exitPerimeter=0;" edge="1" parent="fiHjf8CpsCOwkjGCvEwX-12" source="fiHjf8CpsCOwkjGCvEwX-15" target="fiHjf8CpsCOwkjGCvEwX-15">
          <mxGeometry width="100" relative="1" as="geometry">
            <mxPoint x="30" y="149" as="sourcePoint" />
            <mxPoint x="130" y="149" as="targetPoint" />
          </mxGeometry>
        </mxCell>
        <mxCell id="fiHjf8CpsCOwkjGCvEwX-15" value="getSpells(): String&#xa;getCreatures(): String&#xa;summonCreature: Void&#xa;" style="text;align=left;verticalAlign=top;spacingLeft=4;spacingRight=4;overflow=hidden;rotatable=0;points=[[0,0.5],[1,0.5]];portConstraint=eastwest;rounded=0;shadow=0;html=0;" vertex="1" parent="fiHjf8CpsCOwkjGCvEwX-12">
          <mxGeometry y="80" width="210" height="60" as="geometry" />
        </mxCell>
        <mxCell id="fiHjf8CpsCOwkjGCvEwX-16" value="Potion" style="swimlane;fontStyle=0;align=center;verticalAlign=top;childLayout=stackLayout;horizontal=1;startSize=30;horizontalStack=0;resizeParent=1;resizeLast=0;collapsible=1;marginBottom=0;rounded=0;shadow=0;strokeWidth=1;" vertex="1" parent="WIyWlLk6GJQsqaUBKTNV-1">
          <mxGeometry x="-340" y="445" width="150" height="140" as="geometry">
            <mxRectangle x="130" y="380" width="160" height="26" as="alternateBounds" />
          </mxGeometry>
        </mxCell>
        <mxCell id="fiHjf8CpsCOwkjGCvEwX-17" value="-used: Bool&#xa;-potionEffect: String" style="text;align=left;verticalAlign=top;spacingLeft=4;spacingRight=4;overflow=hidden;rotatable=0;points=[[0,0.5],[1,0.5]];portConstraint=eastwest;rounded=0;shadow=0;html=0;" vertex="1" parent="fiHjf8CpsCOwkjGCvEwX-16">
          <mxGeometry y="30" width="150" height="50" as="geometry" />
        </mxCell>
        <mxCell id="fiHjf8CpsCOwkjGCvEwX-18" value="" style="shape=link;html=1;rounded=0;entryX=0.997;entryY=0.006;entryDx=0;entryDy=0;entryPerimeter=0;exitX=0;exitY=0.03;exitDx=0;exitDy=0;exitPerimeter=0;" edge="1" parent="fiHjf8CpsCOwkjGCvEwX-16" source="fiHjf8CpsCOwkjGCvEwX-19" target="fiHjf8CpsCOwkjGCvEwX-19">
          <mxGeometry width="100" relative="1" as="geometry">
            <mxPoint x="30" y="149" as="sourcePoint" />
            <mxPoint x="130" y="149" as="targetPoint" />
          </mxGeometry>
        </mxCell>
        <mxCell id="fiHjf8CpsCOwkjGCvEwX-19" value="drink(): Void&#xa;isEmpty : Bool" style="text;align=left;verticalAlign=top;spacingLeft=4;spacingRight=4;overflow=hidden;rotatable=0;points=[[0,0.5],[1,0.5]];portConstraint=eastwest;rounded=0;shadow=0;html=0;" vertex="1" parent="fiHjf8CpsCOwkjGCvEwX-16">
          <mxGeometry y="80" width="150" height="60" as="geometry" />
        </mxCell>
        <mxCell id="fiHjf8CpsCOwkjGCvEwX-30" style="edgeStyle=orthogonalEdgeStyle;rounded=0;orthogonalLoop=1;jettySize=auto;html=1;entryX=0.13;entryY=0.992;entryDx=0;entryDy=0;entryPerimeter=0;" edge="1" parent="WIyWlLk6GJQsqaUBKTNV-1" source="fiHjf8CpsCOwkjGCvEwX-20" target="fiHjf8CpsCOwkjGCvEwX-4">
          <mxGeometry relative="1" as="geometry">
            <mxPoint x="130" y="560" as="targetPoint" />
          </mxGeometry>
        </mxCell>
        <mxCell id="fiHjf8CpsCOwkjGCvEwX-20" value="Amulet" style="swimlane;fontStyle=0;align=center;verticalAlign=top;childLayout=stackLayout;horizontal=1;startSize=30;horizontalStack=0;resizeParent=1;resizeLast=0;collapsible=1;marginBottom=0;rounded=0;shadow=0;strokeWidth=1;" vertex="1" parent="WIyWlLk6GJQsqaUBKTNV-1">
          <mxGeometry x="-180" y="515" width="150" height="140" as="geometry">
            <mxRectangle x="130" y="380" width="160" height="26" as="alternateBounds" />
          </mxGeometry>
        </mxCell>
        <mxCell id="fiHjf8CpsCOwkjGCvEwX-21" value="-elementBoosted: String" style="text;align=left;verticalAlign=top;spacingLeft=4;spacingRight=4;overflow=hidden;rotatable=0;points=[[0,0.5],[1,0.5]];portConstraint=eastwest;rounded=0;shadow=0;html=0;" vertex="1" parent="fiHjf8CpsCOwkjGCvEwX-20">
          <mxGeometry y="30" width="150" height="50" as="geometry" />
        </mxCell>
        <mxCell id="fiHjf8CpsCOwkjGCvEwX-22" value="" style="shape=link;html=1;rounded=0;entryX=0.997;entryY=0.006;entryDx=0;entryDy=0;entryPerimeter=0;exitX=0;exitY=0.03;exitDx=0;exitDy=0;exitPerimeter=0;" edge="1" parent="fiHjf8CpsCOwkjGCvEwX-20" source="fiHjf8CpsCOwkjGCvEwX-23" target="fiHjf8CpsCOwkjGCvEwX-23">
          <mxGeometry width="100" relative="1" as="geometry">
            <mxPoint x="30" y="149" as="sourcePoint" />
            <mxPoint x="130" y="149" as="targetPoint" />
          </mxGeometry>
        </mxCell>
        <mxCell id="fiHjf8CpsCOwkjGCvEwX-23" value="prayToActivate(): Void&#xa;elementBoosted: String" style="text;align=left;verticalAlign=top;spacingLeft=4;spacingRight=4;overflow=hidden;rotatable=0;points=[[0,0.5],[1,0.5]];portConstraint=eastwest;rounded=0;shadow=0;html=0;" vertex="1" parent="fiHjf8CpsCOwkjGCvEwX-20">
          <mxGeometry y="80" width="150" height="60" as="geometry" />
        </mxCell>
        <mxCell id="fiHjf8CpsCOwkjGCvEwX-24" value="SimpleAxe" style="swimlane;fontStyle=0;align=center;verticalAlign=top;childLayout=stackLayout;horizontal=1;startSize=30;horizontalStack=0;resizeParent=1;resizeLast=0;collapsible=1;marginBottom=0;rounded=0;shadow=0;strokeWidth=1;" vertex="1" parent="WIyWlLk6GJQsqaUBKTNV-1">
          <mxGeometry x="310" y="585" width="150" height="140" as="geometry">
            <mxRectangle x="130" y="380" width="160" height="26" as="alternateBounds" />
          </mxGeometry>
        </mxCell>
        <mxCell id="fiHjf8CpsCOwkjGCvEwX-25" value="-rangeIfThrowed(): Int&#xa;-material: String" style="text;align=left;verticalAlign=top;spacingLeft=4;spacingRight=4;overflow=hidden;rotatable=0;points=[[0,0.5],[1,0.5]];portConstraint=eastwest;rounded=0;shadow=0;html=0;" vertex="1" parent="fiHjf8CpsCOwkjGCvEwX-24">
          <mxGeometry y="30" width="150" height="50" as="geometry" />
        </mxCell>
        <mxCell id="fiHjf8CpsCOwkjGCvEwX-26" value="" style="shape=link;html=1;rounded=0;entryX=0.997;entryY=0.006;entryDx=0;entryDy=0;entryPerimeter=0;exitX=0;exitY=0.03;exitDx=0;exitDy=0;exitPerimeter=0;" edge="1" parent="fiHjf8CpsCOwkjGCvEwX-24" source="fiHjf8CpsCOwkjGCvEwX-27" target="fiHjf8CpsCOwkjGCvEwX-27">
          <mxGeometry width="100" relative="1" as="geometry">
            <mxPoint x="30" y="149" as="sourcePoint" />
            <mxPoint x="130" y="149" as="targetPoint" />
          </mxGeometry>
        </mxCell>
        <mxCell id="fiHjf8CpsCOwkjGCvEwX-27" value="attack(): Void&#xa;throw():void&#xa;getMaterial(): String&#xa;" style="text;align=left;verticalAlign=top;spacingLeft=4;spacingRight=4;overflow=hidden;rotatable=0;points=[[0,0.5],[1,0.5]];portConstraint=eastwest;rounded=0;shadow=0;html=0;" vertex="1" parent="fiHjf8CpsCOwkjGCvEwX-24">
          <mxGeometry y="80" width="150" height="60" as="geometry" />
        </mxCell>
        <mxCell id="fiHjf8CpsCOwkjGCvEwX-28" style="edgeStyle=orthogonalEdgeStyle;rounded=0;orthogonalLoop=1;jettySize=auto;html=1;entryX=0;entryY=0.5;entryDx=0;entryDy=0;" edge="1" parent="WIyWlLk6GJQsqaUBKTNV-1" source="fiHjf8CpsCOwkjGCvEwX-13" target="zkfFHV4jXpPFQw0GAbJ--8">
          <mxGeometry relative="1" as="geometry" />
        </mxCell>
        <mxCell id="fiHjf8CpsCOwkjGCvEwX-29" style="edgeStyle=orthogonalEdgeStyle;rounded=0;orthogonalLoop=1;jettySize=auto;html=1;entryX=0;entryY=0.5;entryDx=0;entryDy=0;" edge="1" parent="WIyWlLk6GJQsqaUBKTNV-1" source="fiHjf8CpsCOwkjGCvEwX-17" target="zkfFHV4jXpPFQw0GAbJ--8">
          <mxGeometry relative="1" as="geometry" />
        </mxCell>
        <mxCell id="fiHjf8CpsCOwkjGCvEwX-31" style="edgeStyle=orthogonalEdgeStyle;rounded=0;orthogonalLoop=1;jettySize=auto;html=1;entryX=0.455;entryY=0.98;entryDx=0;entryDy=0;entryPerimeter=0;" edge="1" parent="WIyWlLk6GJQsqaUBKTNV-1" source="fiHjf8CpsCOwkjGCvEwX-24" target="fiHjf8CpsCOwkjGCvEwX-6">
          <mxGeometry relative="1" as="geometry" />
        </mxCell>
        <mxCell id="fiHjf8CpsCOwkjGCvEwX-32" value="DoubleAxe" style="swimlane;fontStyle=0;align=center;verticalAlign=top;childLayout=stackLayout;horizontal=1;startSize=30;horizontalStack=0;resizeParent=1;resizeLast=0;collapsible=1;marginBottom=0;rounded=0;shadow=0;strokeWidth=1;" vertex="1" parent="WIyWlLk6GJQsqaUBKTNV-1">
          <mxGeometry x="513" y="580" width="150" height="140" as="geometry">
            <mxRectangle x="130" y="380" width="160" height="26" as="alternateBounds" />
          </mxGeometry>
        </mxCell>
        <mxCell id="fiHjf8CpsCOwkjGCvEwX-33" value="-rangeIfThrowed(): Int&#xa;-material: String" style="text;align=left;verticalAlign=top;spacingLeft=4;spacingRight=4;overflow=hidden;rotatable=0;points=[[0,0.5],[1,0.5]];portConstraint=eastwest;rounded=0;shadow=0;html=0;" vertex="1" parent="fiHjf8CpsCOwkjGCvEwX-32">
          <mxGeometry y="30" width="150" height="50" as="geometry" />
        </mxCell>
        <mxCell id="fiHjf8CpsCOwkjGCvEwX-34" value="" style="shape=link;html=1;rounded=0;entryX=0.997;entryY=0.006;entryDx=0;entryDy=0;entryPerimeter=0;exitX=0;exitY=0.03;exitDx=0;exitDy=0;exitPerimeter=0;" edge="1" parent="fiHjf8CpsCOwkjGCvEwX-32" source="fiHjf8CpsCOwkjGCvEwX-35" target="fiHjf8CpsCOwkjGCvEwX-35">
          <mxGeometry width="100" relative="1" as="geometry">
            <mxPoint x="30" y="149" as="sourcePoint" />
            <mxPoint x="130" y="149" as="targetPoint" />
          </mxGeometry>
        </mxCell>
        <mxCell id="fiHjf8CpsCOwkjGCvEwX-35" value="attack(): Void&#xa;throw():void&#xa;getMaterial(): String&#xa;" style="text;align=left;verticalAlign=top;spacingLeft=4;spacingRight=4;overflow=hidden;rotatable=0;points=[[0,0.5],[1,0.5]];portConstraint=eastwest;rounded=0;shadow=0;html=0;" vertex="1" parent="fiHjf8CpsCOwkjGCvEwX-32">
          <mxGeometry y="80" width="150" height="60" as="geometry" />
        </mxCell>
      </root>
    </mxGraphModel>
  </diagram>
</mxfile>
